<?xml version="1.0" encoding="utf-8"?>
<!-- Generator: Adobe Illustrator 19.0.0, SVG Export Plug-In . SVG Version: 6.00 Build 0)  -->
<svg version="1.1" id="Layer_1" xmlns="http://www.w3.org/2000/svg" xmlns:xlink="http://www.w3.org/1999/xlink" x="0px" y="0px"
	 viewBox="0 0 96 96" style="enable-background:new 0 0 96 96;" xml:space="preserve">
<style type="text/css">
	.st0{fill:#2C3E50;}
	.st1{fill:#BDC3C7;}
	.st2{fill:#95A5A6;}
	.st3{fill:#ECF0F1;}
	.st4{fill:#34495E;}
</style>
<g id="XMLID_1_">
	<path id="XMLID_3_" class="st0" d="M37.2,58.8c-6.2,3-12.4,6-18.5,9.2c-2.4,1.4-3.3,4.3-3.1,7c0.1,1.6-0.5,3.8,1.2,4.9
		c1.6,0.8,3.5,0.3,5.2,0.5H78c2.1-0.3,2.6-2.4,2.4-4.1c0-2.7,0.2-5.4-1.8-7.3c-1.6-1.6-3.9-2.4-5.8-3.5c-4.7-2.2-9.4-4.6-14-6.8
		H37.2L37.2,58.8z"/>
	<polygon id="XMLID_4_" class="st1" points="37.2,58.8 58.8,58.8 53.4,80.5 42.6,80.5 	"/>
	<polygon id="XMLID_5_" class="st0" points="42.6,64.2 42.6,72.4 45.3,75.1 42.6,80.5 53.4,80.5 50.7,75.1 53.4,72.4 53.4,64.2 	"/>
	<rect id="XMLID_6_" x="39.9" y="50.7" class="st2" width="16.2" height="13.5"/>
	<polygon id="XMLID_7_" class="st3" points="37.2,58.8 39.9,56.1 48,64.2 56.1,56.1 58.8,58.8 53.4,72.4 48,64.2 42.6,72.4 	"/>
	<path id="XMLID_8_" class="st1" d="M48,15.5c-8,0-14.7,7.3-16,16.8c-0.3-0.1-0.6-0.2-0.9-0.1c-1.4,0.5-1.8,3.2-0.8,6
		c0.5,1.7,1.4,3,2.4,3.7c2.1,8.2,8.2,14.1,15.4,14.1c7.2,0,13.3-6,15.4-14.1c0.9-0.7,1.8-2.1,2.4-3.7c0.9-2.8,0.6-5.5-0.8-6
		c-0.3-0.1-0.6,0-0.9,0.1C62.7,22.8,56,15.5,48,15.5z"/>
	<path id="XMLID_11_" class="st4" d="M37.2,58.8l-5.4,2.7v8.1h5.4l-5.4,2.7l5.4,8.1h5.4L37.2,58.8z M58.8,58.8l-5.4,21.6h5.4
		l5.4-8.1l-5.4-2.7h5.4v-8.1L58.8,58.8z"/>
	<path id="XMLID_12_" class="st4" d="M48,15.5c-5.5-0.3-10.7,3.5-13.5,8.7c-1.4,2.4-2.4,5.4-2.8,8.1c0.9-0.3,1.6,0.3,2.4-0.8
		c1.7-1.6,2.5-3,3.1-5.1c1.1-2.4,3.4-6.2,5.4-5.4c1.9,0.5,2.7,1.6,5.4,1.6s3.5-1.1,5.4-1.6c2-0.8,4.4,3,5.4,5.4
		c0.6,2.2,1.3,3.5,3,5.1c0.8,1.1,1.5,0.5,2.4,0.8c-0.4-2.7-1.4-5.7-2.8-8.1C58.7,19.1,53.5,15.3,48,15.5z"/>
</g>
</svg>
